<?xml version="1.0" encoding="UTF-8" standalone="no"?>
<svg
   viewBox="-2.25 -11.450995 1.8094557 2.0594089"
   width="50"
   height="62"
   version="1.1"
   id="svg208277"
   sodipodi:docname="golang-gopher.svg"
   inkscape:version="1.1.2 (1:1.1+202202050950+0a00cf5339)"
   xmlns:inkscape="http://www.inkscape.org/namespaces/inkscape"
   xmlns:sodipodi="http://sodipodi.sourceforge.net/DTD/sodipodi-0.dtd"
   xmlns="http://www.w3.org/2000/svg"
   xmlns:svg="http://www.w3.org/2000/svg">
  <defs
     id="defs208281" />
  <sodipodi:namedview
     id="namedview208279"
     pagecolor="#ffffff"
     bordercolor="#999999"
     borderopacity="1"
     inkscape:pageshadow="0"
     inkscape:pageopacity="0"
     inkscape:pagecheckerboard="0"
     showgrid="false"
     inkscape:zoom="7.2"
     inkscape:cx="28.402778"
     inkscape:cy="57.152778"
     inkscape:window-width="5048"
     inkscape:window-height="1376"
     inkscape:window-x="72"
     inkscape:window-y="27"
     inkscape:window-maximized="1"
     inkscape:current-layer="svg208277" />
  <g
     transform="matrix(0.03840916,0,0,0.03507889,-2.2494484,-11.544015)"
     id="g208275">
    <path
       d="m 0.62,34.63 c 0.09,1.89 2,1 2.83,0.42 0.83,-0.58 1,-0.09 1.12,-1.2 a 18.13,18.13 0 0 0 0.09,-2.18 5.35,5.35 0 0 0 -3.57,0.91 c -0.52,0.38 -1.49,1.58 -0.48,2"
       fill="#f6d2a2"
       id="path208205" />
    <path
       d="m 1.6,36 a 1.2,1.2 0 0 1 -0.54,-0.12 1.24,1.24 0 0 1 -0.62,-1.1 0.82,0.82 0 0 1 -0.45,-0.65 2.3,2.3 0 0 1 1,-1.66 5.5,5.5 0 0 1 3.69,-0.94 h 0.15 v 0.15 a 13,13 0 0 1 -0.05,1.71 v 0.5 c -0.05,0.78 -0.2,0.9 -0.6,1 A 2.23,2.23 0 0 0 3.58,35.18 4.09,4.09 0 0 1 1.6,36 Z m 2.54,-4.13 a 5,5 0 0 0 -2.94,0.9 2,2 0 0 0 -0.84,1.34 0.5,0.5 0 0 0 0.34,0.41 h 0.1 v 0.11 a 1,1 0 0 0 0.42,0.9 2.62,2.62 0 0 0 2.13,-0.62 2.58,2.58 0 0 1 0.68,-0.34 c 0.26,-0.09 0.32,-0.11 0.36,-0.73 v -0.5 a 14,14 0 0 0 0.06,-1.5 H 4.14 Z"
       fill="#010101"
       id="path208207" />
    <path
       d="M 0.62,34.63 A 1.49,1.49 0 0 0 1.37,34.21"
       fill="#c7b199"
       id="path208209" />
    <path
       d="M 0.62,34.81 A 0.18343936,0.18343936 0 0 1 0.51,34.46 H 0.63 A 1.08,1.08 0 0 0 1.18,34.14 0.18200275,0.18200275 0 1 1 1.47,34.36 1.4,1.4 0 0 1 0.75,34.8 H 0.62 Z"
       fill="#010101"
       id="path208211" />
    <path
       d="m 4.98,12.14 c -7.23,-2 -1.85,-11.23 4,-7.45 z"
       fill="#74cddd"
       id="path208213" />
    <path
       d="M 5.07,12.35 H 4.93 C 2.87,11.77 1.6,10.55 1.36,8.92 A 4.79,4.79 0 0 1 3.59,4.4 4.84,4.84 0 0 1 9.03,4.58 l 0.14,0.09 z m 1,-8.38 A 4.23,4.23 0 0 0 3.76,4.66 4.42,4.42 0 0 0 1.69,8.83 c 0.22,1.45 1.34,2.55 3.17,3.1 L 8.66,4.76 A 5,5 0 0 0 6.1,4 Z"
       fill="#010101"
       id="path208215" />
    <path
       d="m 37.1,4 c 5.72,-4 10.89,5 4.24,7.33 z"
       fill="#74cddd"
       id="path208217" />
    <path
       d="m 41.26,11.55 -4.4,-7.6 0.13,-0.09 a 4.72,4.72 0 0 1 5.25,-0.44 4.85,4.85 0 0 1 2.39,4.48 c -0.1,1 -0.64,2.71 -3.23,3.6 z m -3.92,-7.5 4.08,7.06 A 3.91,3.91 0 0 0 44.27,7.87 4.48,4.48 0 0 0 42.06,3.72 4.25,4.25 0 0 0 37.34,4.05 Z"
       fill="#010101"
       id="path208219" />
    <path
       d="m 38.33,57.87 c 1.45,0.9 4.11,3.62 1.93,4.94 -2.09,1.92 -3.27,-2.11 -5.11,-2.66 a 5.09,5.09 0 0 1 3.18,-2.28 z"
       fill="#f6d2a2"
       id="path208221" />
    <path
       d="M 39.15,63.5 H 39.07 C 38.24,63.45 37.56,62.64 36.9,61.87 A 4.66,4.66 0 0 0 35.1,60.32 L 34.86,60.25 35.01,60 a 5.31,5.31 0 0 1 3.29,-2.35 h 0.13 c 0.93,0.58 2.85,2.26 2.84,3.78 a 1.67,1.67 0 0 1 -0.9,1.45 1.81,1.81 0 0 1 -1.22,0.62 z m -3.72,-3.44 a 5.73,5.73 0 0 1 1.73,1.57 3.49,3.49 0 0 0 1.92,1.51 1.43,1.43 0 0 0 1,-0.47 1.32,1.32 0 0 0 0.74,-1.16 c 0,-1.22 -1.54,-2.75 -2.61,-3.44 a 4.7,4.7 0 0 0 -2.77,1.99 z"
       fill="#010101"
       id="path208223" />
    <path
       d="M 40.26,63 A 0.18,0.18 0 0 1 40.1,62.9 6.67,6.67 0 0 1 39.82,62.22 3,3 0 0 0 39.16,61 a 0.18034689,0.18034689 0 1 1 0.25,-0.26 3.31,3.31 0 0 1 0.74,1.32 6.41,6.41 0 0 0 0.27,0.64 0.18,0.18 0 0 1 -0.08,0.24 z"
       fill="#010101"
       id="path208225" />
    <path
       d="m 12.36,60.94 c -1.71,0.26 -2.67,1.8 -4.09,2.58 a 1.24,1.24 0 0 1 -2,-0.47 0.65,0.65 0 0 1 -0.52,-0.24 c -1.24,-2 1.29,-3.39 2.62,-4.37 1.87,-0.36 3.02,1.23 3.99,2.5 z"
       fill="#f6d2a2"
       id="path208227" />
    <path
       d="M 7.37,64 A 1.22,1.22 0 0 1 7.05,64 1.48,1.48 0 0 1 6.18,63.25 0.6,0.6 0 0 1 5.69,62.99 C 4.49,61.1 6.53,59.67 7.88,58.72 l 0.47,-0.34 c 1.89,-0.38 3.09,1.18 4.05,2.44 l 0.27,0.36 h -0.3 A 5.17,5.17 0 0 0 9.84,62.63 9.19,9.19 0 0 1 8.34,63.75 2,2 0 0 1 7.37,64 Z m -1.2,-1.16 a 0.49,0.49 0 0 1 0.21,0 H 6.43 L 6.51,63 a 1.16,1.16 0 0 0 0.67,0.61 1.37,1.37 0 0 0 1,-0.24 8.93,8.93 0 0 0 1.45,-1.08 6,6 0 0 1 2.41,-1.47 c -0.92,-1.2 -2,-2.5 -3.57,-2.2 l -0.45,0.32 c -1.38,1 -3.09,2.18 -2.1,3.77 a 0.29,0.29 0 0 0 0.21,0.14 z"
       fill="#010101"
       id="path208229" />
    <path
       d="M 6.3,63.24 A 0.18,0.18 0 0 1 6.12,63 2.74,2.74 0 0 1 6.7,61.69 4.22,4.22 0 0 0 7.08,61.06 0.18124569,0.18124569 0 0 1 7.41,61.21 4.56,4.56 0 0 1 7,61.9 2.43,2.43 0 0 0 6.51,63.07 0.18,0.18 0 0 1 6.3,63.24 Z M 5.28,9.6 C 4.28,9.1 3.63,8.41 4.21,7.31 4.79,6.21 5.75,6.4 6.71,6.9 Z M 39.83,8.64 c 1,-0.5 1.65,-1.19 1.07,-2.29 -0.58,-1.1 -1.54,-0.91 -2.5,-0.41 z"
       fill="#010101"
       id="path208231" />
    <path
       d="m 46.4,34.39 c -0.09,1.89 -2,1 -2.83,0.42 -0.83,-0.58 -1,-0.09 -1.12,-1.2 a 18.13,18.13 0 0 1 -0.09,-2.18 5.35,5.35 0 0 1 3.57,0.91 c 0.52,0.38 1.49,1.58 0.48,2"
       fill="#f6d2a2"
       id="path208233" />
    <path
       d="M 45.42,35.72 A 4.09,4.09 0 0 1 43.51,35 2.23,2.23 0 0 0 42.91,34.71 c -0.4,-0.14 -0.55,-0.26 -0.6,-1 v -0.5 A 13,13 0 0 1 42.26,31.5 v -0.24 h 0.15 a 5.5,5.5 0 0 1 3.69,0.94 2.3,2.3 0 0 1 1,1.66 0.82,0.82 0 0 1 -0.45,0.65 1.24,1.24 0 0 1 -0.62,1.1 1.21,1.21 0 0 1 -0.61,0.11 z M 42.51,31.6 a 14.05,14.05 0 0 0 0.06,1.5 v 0.5 c 0,0.61 0.09,0.63 0.36,0.73 a 2.58,2.58 0 0 1 0.68,0.34 2.61,2.61 0 0 0 2.13,0.62 1,1 0 0 0 0.42,-0.9 v -0.12 h 0.1 A 0.5,0.5 0 0 0 46.6,33.86 2,2 0 0 0 45.76,32.52 5.1,5.1 0 0 0 42.51,31.6 Z"
       fill="#010101"
       id="path208235" />
    <path
       d="M 46.4,34.39 A 1.49,1.49 0 0 1 45.65,34"
       fill="#c7b199"
       id="path208237" />
    <path
       d="m 46.4,34.57 h -0.19 a 1.4,1.4 0 0 1 -0.7,-0.5 0.18200275,0.18200275 0 1 1 0.29,-0.22 1.08,1.08 0 0 0 0.55,0.32 h 0.12 a 0.20303941,0.20303941 0 0 1 -0.07,0.4 z"
       fill="#010101"
       id="path208239" />
    <path
       d="m 22.79,0.18 c 7.24,0 14,1 17.56,8 3.17,7.79 2,16.2 2.53,24.43 0.42,7.07 1.34,15.24 -1.94,21.8 C 37.51,61.29 28.85,63 21.75,62.77 16.17,62.57 9.43,60.77 6.28,55.65 2.58,49.65 4.33,40.77 4.6,34.12 4.92,26.24 2.46,18.33 5.05,10.61 7.74,2.61 14.98,0.8 22.78,0.18"
       fill="#74cddd"
       id="path208241" />
    <path
       d="M 22.98,63 H 21.74 A 26.39,26.39 0 0 1 13.03,61.26 13.93,13.93 0 0 1 6.12,55.79 C 3.12,50.95 3.66,44.27 4.12,38.37 4.24,36.89 4.35,35.48 4.4,34.16 A 67.83,67.83 0 0 0 4.04,25.78 C 3.62,20.78 3.18,15.61 4.86,10.6 a 13.28,13.28 0 0 1 7,-8.09 c 2.7,-1.32 6,-2.08 10.85,-2.46 C 29.85,0 36.89,1 40.51,8.09 c 2.32,5.7 2.35,11.82 2.39,17.74 0,2.22 0,4.51 0.16,6.75 0,0.68 0.08,1.37 0.13,2.06 0.42,6.49 0.9,13.86 -2.09,19.82 C 37.36,61.92 27.96,63 22.98,63 Z M 22.79,0.36 C 15.26,1 7.92,2.62 5.22,10.67 3.56,15.61 4,20.74 4.41,25.67 a 68.09,68.09 0 0 1 0.36,8.42 c -0.05,1.33 -0.17,2.74 -0.28,4.23 -0.46,5.84 -1,12.47 1.93,17.2 1.23,2 5.19,6.67 15.33,7 4.39,0.16 15,-0.34 19,-8.28 2.94,-5.88 2.47,-13.19 2.05,-19.64 0,-0.7 -0.09,-1.39 -0.13,-2.06 -0.11,-2.18 -0.16,-4.48 -0.16,-6.7 0,-5.88 -0.06,-12 -2.36,-17.6 A 12.87,12.87 0 0 0 32.86,1.73 29.9,29.9 0 0 0 22.79,0.36 Z"
       fill="#010101"
       id="path208243" />
    <path
       d="M 24.06,9.89 C 25.36,17.44 37.7,15.45 35.93,7.83 34.34,1 23.63,2.89 24.06,9.89"
       fill="#ffffff"
       id="path208245" />
    <path
       d="m 29.93,14.82 a 6.91,6.91 0 0 1 -2.26,-0.37 5.59,5.59 0 0 1 -3.78,-4.53 5.76,5.76 0 0 1 1.56,-4.44 6.81,6.81 0 0 1 4,-2 6.4,6.4 0 0 1 4.06,0.7 5.45,5.45 0 0 1 2.59,3.61 5.28,5.28 0 0 1 -1.54,5.36 7,7 0 0 1 -4.63,1.67 z M 24.24,9.87 a 5.25,5.25 0 0 0 3.55,4.25 6.83,6.83 0 0 0 6.55,-1.24 5,5 0 0 0 1.43,-5 5.34,5.34 0 0 0 -6.26,-4.06 5.77,5.77 0 0 0 -5.27,6.05 z"
       fill="#010101"
       id="path208247" />
    <path
       d="M 9.31,11.12 C 10.99,17.69 21.51,16 21.12,9.41 20.65,1.51 7.7,3 9.31,11.12"
       fill="#ffffff"
       id="path208249" />
    <path
       d="M 14.93,15.45 A 6.46,6.46 0 0 1 11.86,14.7 5.45,5.45 0 0 1 9.15,11.15 5.51,5.51 0 0 1 11.03,5.5 a 7.1,7.1 0 0 1 7.06,-0.9 5.34,5.34 0 0 1 3.2,4.8 c 0.21,3.5 -2.57,5.54 -5.23,6 a 7.31,7.31 0 0 1 -1.13,0.05 z M 9.51,11.08 a 5.46,5.46 0 0 0 6.53,4 c 2.52,-0.4 5.15,-2.32 4.95,-5.61 a 5,5 0 0 0 -3,-4.52 6.75,6.75 0 0 0 -6.71,0.86 5.19,5.19 0 0 0 -1.77,5.27 z"
       fill="#010101"
       id="path208251" />
    <path
       d="m 25.51,19 a 17,17 0 0 1 0,3.13 2,2 0 0 1 -1.17,0.72 1.72,1.72 0 0 1 -1.31,-1 22.22,22.22 0 0 1 0.09,-3.54 z"
       fill="#ffffff"
       id="path208253" />
    <path
       d="M 24.45,23 H 24.4 a 1.89,1.89 0 0 1 -1.45,-1.13 11.88,11.88 0 0 1 0,-2.43 c 0,-0.37 0.06,-0.76 0.07,-1.14 V 18 l 2.7,0.83 V 19 c 0,0.32 0,0.66 0.05,1 a 8.57,8.57 0 0 1 0,2.15 v 0.05 a 1.5,1.5 0 0 1 -0.95,0.68 L 24.51,23 Z m -1.16,-1.26 a 1.53,1.53 0 0 0 1.12,0.89 l 0.28,-0.11 a 1.2,1.2 0 0 0 0.73,-0.52 8.43,8.43 0 0 0 0,-2 c 0,-0.31 0,-0.61 -0.05,-0.91 l -2,-0.61 c 0,0.31 0,0.62 -0.06,0.92 a 11.54,11.54 0 0 0 -0.03,2.33 z"
       fill="#010101"
       id="path208255" />
    <ellipse
       cx="12.21"
       cy="10.04"
       fill="#010101"
       rx="1.78"
       ry="1.9299999"
       id="ellipse208257" />
    <ellipse
       cx="13.02"
       cy="10.48"
       fill="#ffffff"
       rx="0.41999999"
       ry="0.49000001"
       id="ellipse208259" />
    <ellipse
       cx="27.110001"
       cy="9.5600004"
       fill="#010101"
       rx="1.75"
       ry="1.9299999"
       id="ellipse208261" />
    <ellipse
       cx="27.9"
       cy="10"
       fill="#ffffff"
       rx="0.41"
       ry="0.49000001"
       id="ellipse208263" />
    <path
       d="m 20.51,18.85 c -0.78,1.88 0.43,5.64 2.54,2.87 a 22.22,22.22 0 0 1 0.09,-3.54 z"
       fill="#ffffff"
       id="path208265" />
    <path
       d="m 21.6,22.89 a 1,1 0 0 1 -0.52,-0.14 c -0.85,-0.49 -1.38,-2.5 -0.78,-4 v -0.08 l 3,-0.76 v 0.24 c 0,0.39 0,0.78 -0.07,1.15 a 11.43,11.43 0 0 0 0,2.36 v 0.13 a 2.11,2.11 0 0 1 -1.63,1.1 z M 20.61,19 c -0.43,1.17 -0.09,3 0.66,3.43 0.54,0.31 1.14,-0.23 1.56,-0.77 a 12.23,12.23 0 0 1 0,-2.36 c 0,-0.29 0,-0.6 0.06,-0.9 z"
       fill="#010101"
       id="path208267" />
    <path
       d="m 20.74,15.23 a 2.29,2.29 0 0 0 -1.88,3.2 c 1,1.8 3.22,-0.16 4.6,0 1.59,0 2.9,1.68 4.18,0.3 1.42,-1.54 -0.61,-3 -2.2,-3.71 z"
       fill="#f6d2a2"
       id="path208269" />
    <path
       d="M 26.51,19.49 A 4,4 0 0 1 25.05,19.08 4.41,4.41 0 0 0 23.47,18.64 4,4 0 0 0 21.81,19 c -1.12,0.39 -2.39,0.83 -3.11,-0.46 a 2.16,2.16 0 0 1 0,-2.1 2.56,2.56 0 0 1 2,-1.37 l 4.81,-0.21 c 1.18,0.5 2.53,1.41 2.76,2.47 a 1.91,1.91 0 0 1 -1.76,2.16 z m -3,-1.21 a 4.7,4.7 0 0 1 1.7,0.47 c 0.9,0.38 1.61,0.67 2.33,-0.11 a 1.33,1.33 0 0 0 0.41,-1.21 c -0.2,-0.92 -1.47,-1.76 -2.51,-2.2 l -4.65,0.19 a 2.22,2.22 0 0 0 -1.7,1.18 1.81,1.81 0 0 0 0,1.75 c 0.57,1 1.59,0.67 2.68,0.3 a 4.24,4.24 0 0 1 1.74,-0.37 z"
       fill="#231f20"
       id="path208271" />
    <path
       d="m 20.51,15.16 c -0.11,-2.5 4.67,-2.82 5.23,-0.72 0.56,2.1 -5,2.58 -5.23,0.72 z"
       fill="#010101"
       id="path208273" />
  </g>
</svg>
