<svg xmlns="http://www.w3.org/2000/svg" viewBox="0 0 288 288" width="288" height="288">
  <style>
    .cell { fill: #1a1b27; }
    .empty-slot { animation: slide-empty 30s ease-in-out infinite; }
    .empty-slot rect { fill: none; stroke: #30363d; stroke-width: 1.5; stroke-dasharray: 5 3; opacity: 0.4; }
    .lbl { font-family: Arial, Helvetica, sans-serif; font-size: 7px; font-weight: 600; text-anchor: middle; dominant-baseline: auto; opacity: 0.9; }

    .t-nosql  { transform: translate(216px,148px); animation: slide-nosql 30s ease-in-out infinite; }
    .t-sql    { transform: translate(148px,148px); animation: slide-sql 30s ease-in-out infinite; }
    .t-tauri  { transform: translate(148px,80px);  animation: slide-tauri 30s ease-in-out infinite; }
    .t-net    { transform: translate(80px,80px);   animation: slide-net 30s ease-in-out infinite; }
    .t-k8s    { transform: translate(80px,148px);  animation: slide-k8s 30s ease-in-out infinite; }
    .t-docker { transform: translate(12px,148px);  animation: slide-docker 30s ease-in-out infinite; }
    .t-ts     { transform: translate(12px,80px);   animation: slide-ts 30s ease-in-out infinite; }
    .t-csharp { transform: translate(80px,12px);   animation: slide-csharp 30s ease-in-out infinite; }
    .t-rust   { transform: translate(148px,12px);  animation: slide-rust 30s ease-in-out infinite; }
    .t-grpc   { transform: translate(216px,80px);  animation: slide-grpc 30s ease-in-out infinite; }

    @keyframes slide-nosql {
      0% { transform: translate(216px,148px); }
      3%,39% { transform: translate(216px,216px); }
      42%,50% { transform: translate(216px,148px); }
      53%,89% { transform: translate(216px,216px); }
      92%,100% { transform: translate(216px,148px); }
    }
    @keyframes slide-sql {
      0%,3% { transform: translate(148px,148px); }
      6%,36% { transform: translate(216px,148px); }
      39%,53% { transform: translate(216px,80px); }
      56%,86% { transform: translate(216px,148px); }
      89%,100% { transform: translate(148px,148px); }
    }
    @keyframes slide-tauri {
      0%,6% { transform: translate(148px,80px); }
      9%,83% { transform: translate(148px,148px); }
      86%,100% { transform: translate(148px,80px); }
    }
    @keyframes slide-net {
      0%,9% { transform: translate(80px,80px); }
      12%,30% { transform: translate(148px,80px); }
      33%,59% { transform: translate(148px,12px); }
      62%,80% { transform: translate(148px,80px); }
      83%,100% { transform: translate(80px,80px); }
    }
    @keyframes slide-k8s {
      0%,12% { transform: translate(80px,148px); }
      15%,21% { transform: translate(80px,80px); }
      24%,68% { transform: translate(12px,80px); }
      71%,77% { transform: translate(80px,80px); }
      80%,100% { transform: translate(80px,148px); }
    }
    @keyframes slide-docker {
      0%,15% { transform: translate(12px,148px); }
      18%,74% { transform: translate(80px,148px); }
      77%,100% { transform: translate(12px,148px); }
    }
    @keyframes slide-ts {
      0%,18% { transform: translate(12px,80px); }
      21%,71% { transform: translate(12px,148px); }
      74%,100% { transform: translate(12px,80px); }
    }
    @keyframes slide-csharp {
      0%,24% { transform: translate(80px,12px); }
      27%,65% { transform: translate(80px,80px); }
      68%,100% { transform: translate(80px,12px); }
    }
    @keyframes slide-rust {
      0%,27% { transform: translate(148px,12px); }
      30%,62% { transform: translate(80px,12px); }
      65%,100% { transform: translate(148px,12px); }
    }
    @keyframes slide-grpc {
      0%,33% { transform: translate(216px,80px); }
      36%,56% { transform: translate(148px,80px); }
      59%,100% { transform: translate(216px,80px); }
    }
    @keyframes slide-empty {
      0% { transform: translate(216px,216px); }
      3% { transform: translate(216px,148px); }
      6% { transform: translate(148px,148px); }
      9% { transform: translate(148px,80px); }
      12% { transform: translate(80px,80px); }
      15% { transform: translate(80px,148px); }
      18% { transform: translate(12px,148px); }
      21% { transform: translate(12px,80px); }
      24% { transform: translate(80px,80px); }
      27% { transform: translate(80px,12px); }
      30% { transform: translate(148px,12px); }
      33% { transform: translate(148px,80px); }
      36% { transform: translate(216px,80px); }
      39% { transform: translate(216px,148px); }
      42%,50% { transform: translate(216px,216px); }
      53% { transform: translate(216px,148px); }
      56% { transform: translate(216px,80px); }
      59% { transform: translate(148px,80px); }
      62% { transform: translate(148px,12px); }
      65% { transform: translate(80px,12px); }
      68% { transform: translate(80px,80px); }
      71% { transform: translate(12px,80px); }
      74% { transform: translate(12px,148px); }
      77% { transform: translate(80px,148px); }
      80% { transform: translate(80px,80px); }
      83% { transform: translate(148px,80px); }
      86% { transform: translate(148px,148px); }
      89% { transform: translate(216px,148px); }
      92%,100% { transform: translate(216px,216px); }
    }
  </style>

  <!-- 4x4 cell backgrounds -->
  <rect class="cell" x="12" y="12" width="60" height="60" rx="14"/>
  <rect class="cell" x="80" y="12" width="60" height="60" rx="14"/>
  <rect class="cell" x="148" y="12" width="60" height="60" rx="14"/>
  <rect class="cell" x="216" y="12" width="60" height="60" rx="14"/>
  <rect class="cell" x="12" y="80" width="60" height="60" rx="14"/>
  <rect class="cell" x="80" y="80" width="60" height="60" rx="14"/>
  <rect class="cell" x="148" y="80" width="60" height="60" rx="14"/>
  <rect class="cell" x="216" y="80" width="60" height="60" rx="14"/>
  <rect class="cell" x="12" y="148" width="60" height="60" rx="14"/>
  <rect class="cell" x="80" y="148" width="60" height="60" rx="14"/>
  <rect class="cell" x="148" y="148" width="60" height="60" rx="14"/>
  <rect class="cell" x="216" y="148" width="60" height="60" rx="14"/>
  <rect class="cell" x="12" y="216" width="60" height="60" rx="14"/>
  <rect class="cell" x="80" y="216" width="60" height="60" rx="14"/>
  <rect class="cell" x="148" y="216" width="60" height="60" rx="14"/>
  <rect class="cell" x="216" y="216" width="60" height="60" rx="14"/>

  <!-- Empty space indicator -->
  <g class="empty-slot"><rect width="60" height="60" rx="14"/></g>

  <!-- ===== STATIC TILES ===== -->

  <!-- C (0,0) -->
  <g transform="translate(12,12)">
    <rect width="60" height="60" rx="14" fill="#555D66"/>
    <svg x="16" y="12" width="28" height="28" viewBox="0 0 24 24"><path fill="#fff" d="M16.5921 9.1962s-.354-3.298-3.627-3.39c-3.2741-.09-4.9552 2.474-4.9552 6.14 0 3.6651 1.858 6.5972 5.0451 6.5972 3.184 0 3.5381-3.665 3.5381-3.665l6.1041.365s.36 3.31-2.196 5.836c-2.552 2.5241-5.6901 2.9371-7.8762 2.9201-2.19-.017-5.2261.034-8.1602-2.97-2.938-3.0101-3.436-5.9302-3.436-8.8002 0-2.8701.556-6.6702 4.047-9.5502C7.444.72 9.849 0 12.254 0c10.0422 0 10.7172 9.2602 10.7172 9.2602z"/></svg>
    <text class="lbl" x="30" y="55" fill="#fff">C</text>
  </g>

  <!-- Python (0,3) -->
  <g transform="translate(216,12)">
    <rect width="60" height="60" rx="14" fill="#3776AB"/>
    <svg x="16" y="12" width="28" height="28" viewBox="0 0 24 24"><path fill="#fff" d="M14.25.18l.9.2.73.26.59.3.45.32.34.34.25.34.16.33.1.3.04.26.02.2-.01.13V8.5l-.05.63-.13.55-.21.46-.26.38-.3.31-.33.25-.35.19-.35.14-.33.1-.3.07-.26.04-.21.02H8.77l-.69.05-.59.14-.5.22-.41.27-.33.32-.27.35-.2.36-.15.37-.1.35-.07.32-.04.27-.02.21v3.06H3.17l-.21-.03-.28-.07-.32-.12-.35-.18-.36-.26-.36-.36-.35-.46-.32-.59-.28-.73-.21-.88-.14-1.05-.05-1.23.06-1.22.16-1.04.24-.87.32-.71.36-.57.4-.44.42-.33.42-.24.4-.16.36-.1.32-.05.24-.01h.16l.06.01h8.16v-.83H6.18l-.01-2.75-.02-.37.05-.34.11-.31.17-.28.25-.26.31-.23.38-.2.44-.18.51-.15.58-.12.64-.1.71-.06.77-.04.84-.02 1.27.05zm-6.3 1.98l-.23.33-.08.41.08.41.23.34.33.22.41.09.41-.09.33-.22.23-.34.08-.41-.08-.41-.23-.33-.33-.22-.41-.09-.41.09zm13.09 3.95l.28.06.32.12.35.18.36.27.36.35.35.47.32.59.28.73.21.88.14 1.04.05 1.23-.06 1.23-.16 1.04-.24.86-.32.71-.36.57-.4.45-.42.33-.42.24-.4.16-.36.09-.32.05-.24.02-.16-.01h-8.22v.82h5.84l.01 2.76.02.36-.05.34-.11.31-.17.29-.25.25-.31.24-.38.2-.44.17-.51.15-.58.13-.64.09-.71.07-.77.04-.84.01-1.27-.04-1.07-.14-.9-.2-.73-.25-.59-.3-.45-.33-.34-.34-.25-.34-.16-.33-.1-.3-.04-.25-.02-.2.01-.13v-5.34l.05-.64.13-.54.21-.46.26-.38.3-.32.33-.24.35-.2.35-.14.33-.1.3-.06.26-.04.21-.02.13-.01h5.84l.69-.05.59-.14.5-.21.41-.28.33-.32.27-.35.2-.36.15-.36.1-.35.07-.32.04-.28.02-.21V6.07h2.09l.14.01zm-6.47 14.25l-.23.33-.08.41.08.41.23.33.33.23.41.08.41-.08.33-.23.23-.33.08-.41-.08-.41-.23-.33-.33-.23-.41-.08-.41.08z"/></svg>
    <text class="lbl" x="30" y="55" fill="#fff">Python</text>
  </g>

  <!-- VHDL (3,0) -->
  <g transform="translate(12,216)">
    <rect width="60" height="60" rx="14" fill="#8E5BAE"/>
    <text font-family="Arial, Helvetica, sans-serif" font-size="13" font-weight="700" text-anchor="middle" dominant-baseline="central" x="30" y="30" fill="#fff">VHDL</text>
  </g>

  <!-- Angular (3,1) -->
  <g transform="translate(80,216)">
    <rect width="60" height="60" rx="14" fill="#DD0031"/>
    <svg x="16" y="12" width="28" height="28" viewBox="0 0 24 24"><path fill="#fff" d="M16.712 17.711H7.288l-1.204 2.916L12 24l5.916-3.373-1.204-2.916ZM14.692 0l7.832 16.855.814-12.856L14.692 0ZM9.308 0 .662 3.999l.814 12.856L9.308 0Zm-.405 13.93h6.198L12 6.396 8.903 13.93Z"/></svg>
    <text class="lbl" x="30" y="55" fill="#fff">Angular</text>
  </g>

  <!-- Git (3,2) -->
  <g transform="translate(148,216)">
    <rect width="60" height="60" rx="14" fill="#F05032"/>
    <svg x="16" y="12" width="28" height="28" viewBox="0 0 24 24"><path fill="#fff" d="M23.546 10.93L13.067.452c-.604-.603-1.582-.603-2.188 0L8.708 2.627l2.76 2.76c.645-.215 1.379-.07 1.889.441.516.515.658 1.258.438 1.9l2.658 2.66c.645-.223 1.387-.078 1.9.435.721.72.721 1.884 0 2.604-.719.719-1.881.719-2.6 0-.539-.541-.674-1.337-.404-1.996L12.86 8.955v6.525c.176.086.342.203.488.348.713.721.713 1.883 0 2.6-.719.721-1.889.721-2.609 0-.719-.719-.719-1.879 0-2.598.182-.18.387-.316.605-.406V8.835c-.217-.091-.424-.222-.6-.401-.545-.545-.676-1.342-.396-2.009L7.636 3.7.45 10.881c-.6.605-.6 1.584 0 2.189l10.48 10.477c.604.604 1.582.604 2.186 0l10.43-10.43c.605-.603.605-1.582 0-2.187"/></svg>
    <text class="lbl" x="30" y="55" fill="#fff">Git</text>
  </g>

  <!-- ===== ANIMATED TILES ===== -->

  <!-- C# -->
  <g class="t-csharp">
    <rect width="60" height="60" rx="14" fill="#953DAC"/>
    <svg x="0" y="0" width="60" height="60" viewBox="0 0 256 256"><path fill="#fff" d="M195.436 100.668V114.142H208.91V100.668H215.647V114.142H229.12V120.879H215.647V134.352H229.12V141.089H215.647V154.563H208.91V141.089H195.436V154.563H188.699V141.089H175.226V134.352H188.699V120.879H175.226V114.142H188.699V100.668H195.436ZM208.91 120.879H195.436V134.352H208.91V120.879Z"/><path fill="#fff" d="M122.001 33C157.144 33 187.828 52.0863 204.262 80.4561L204.102 80.183L162.753 103.991C154.607 90.1977 139.672 80.8892 122.54 80.6975L122.001 80.6945C95.875 80.6945 74.6945 101.874 74.6945 127.999C74.6945 136.543 76.9723 144.552 80.9335 151.469C89.0876 165.704 104.416 175.306 122.001 175.306C139.693 175.306 155.109 165.582 163.222 151.195L163.025 151.54L204.311 175.458C188.057 203.588 157.794 222.615 123.059 222.994L122.001 223C86.746 223 55.9753 203.796 39.582 175.276C31.5791 161.353 27 145.212 27 127.999C27 75.5334 69.5323 33 122.001 33Z"/></svg>
  </g>

  <!-- Rust -->
  <g class="t-rust">
    <rect width="60" height="60" rx="14" fill="#CE422B"/>
    <svg x="16" y="12" width="28" height="28" viewBox="0 0 24 24"><path fill="#fff" d="M23.8346 11.7033l-1.0073-.6236a13.7268 13.7268 0 00-.0283-.2936l.8656-.8069a.3483.3483 0 00-.1154-.578l-1.1066-.414a8.4958 8.4958 0 00-.087-.2856l.6904-.9587a.3462.3462 0 00-.2257-.5446l-1.1663-.1894a9.3574 9.3574 0 00-.1407-.2622l.49-1.0761a.3437.3437 0 00-.0274-.3361.3486.3486 0 00-.3006-.154l-1.1845.0416a6.7444 6.7444 0 00-.1873-.2268l.2723-1.153a.3472.3472 0 00-.417-.4172l-1.1532.2724a14.0183 14.0183 0 00-.2278-.1873l.0415-1.1845a.3442.3442 0 00-.49-.328l-1.076.491c-.0872-.0476-.1742-.0952-.2623-.1407l-.1903-1.1673A.3483.3483 0 0016.256.955l-.9597.6905a8.4867 8.4867 0 00-.2855-.086l-.414-1.1066a.3483.3483 0 00-.5781-.1154l-.8069.8666a9.2936 9.2936 0 00-.2936-.0284L12.2946.1683a.3462.3462 0 00-.5892 0l-.6236 1.0073a13.7383 13.7383 0 00-.2936.0284L9.9803.3374a.3462.3462 0 00-.578.1154l-.4141 1.1065c-.0962.0274-.1903.0567-.2855.086L7.744.955a.3483.3483 0 00-.5447.2258L7.009 2.348a9.3574 9.3574 0 00-.2622.1407l-1.0762-.491a.3462.3462 0 00-.49.328l.0416 1.1845a7.9826 7.9826 0 00-.2278.1873L3.8413 3.425a.3472.3472 0 00-.4171.4171l.2713 1.1531c-.0628.075-.1255.1509-.1863.2268l-1.1845-.0415a.3462.3462 0 00-.328.49l.491 1.0761a9.167 9.167 0 00-.1407.2622l-1.1662.1894a.3483.3483 0 00-.2258.5446l.6904.9587a13.303 13.303 0 00-.087.2855l-1.1065.414a.3483.3483 0 00-.1155.5781l.8656.807a9.2936 9.2936 0 00-.0283.2935l-1.0073.6236a.3442.3442 0 000 .5892l1.0073.6236c.008.0982.0182.1964.0283.2936l-.8656.8079a.3462.3462 0 00.1155.578l1.1065.4141c.0273.0962.0567.1914.087.2855l-.6904.9587a.3452.3452 0 00.2268.5447l1.1662.1893c.0456.088.0922.1751.1408.2622l-.491 1.0762a.3462.3462 0 00.328.49l1.1834-.0415c.0618.0769.1235.1528.1873.2277l-.2713 1.1541a.3462.3462 0 00.4171.4161l1.153-.2713c.075.0638.151.1255.2279.1863l-.0415 1.1845a.3442.3442 0 00.49.327l1.0761-.49c.087.0486.1741.0951.2622.1407l.1903 1.1662a.3483.3483 0 00.5447.2268l.9587-.6904a9.299 9.299 0 00.2855.087l.414 1.1066a.3452.3452 0 00.5781.1154l.8079-.8656c.0972.0111.1954.0203.2936.0294l.6236 1.0073a.3472.3472 0 00.5892 0l.6236-1.0073c.0982-.0091.1964-.0183.2936-.0294l.8069.8656a.3483.3483 0 00.578-.1154l.4141-1.1066a8.4626 8.4626 0 00.2855-.087l.9587.6904a.3452.3452 0 00.5447-.2268l.1903-1.1662c.088-.0456.1751-.0931.2622-.1407l1.0762.49a.3472.3472 0 00.49-.327l-.0415-1.1845a6.7267 6.7267 0 00.2267-.1863l1.1531.2713a.3472.3472 0 00.4171-.416l-.2713-1.1542c.0628-.0749.1255-.1508.1863-.2278l1.1845.0415a.3442.3442 0 00.328-.49l-.49-1.076c.0475-.0872.0951-.1742.1407-.2623l1.1662-.1893a.3483.3483 0 00.2258-.5447l-.6904-.9587.087-.2855 1.1066-.414a.3462.3462 0 00.1154-.5781l-.8656-.8079c.0101-.0972.0202-.1954.0283-.2936l1.0073-.6236a.3442.3442 0 000-.5892zm-6.7413 8.3551a.7138.7138 0 01.2986-1.396.714.714 0 11-.2997 1.396zm-.3422-2.3142a.649.649 0 00-.7715.5l-.3573 1.6685c-1.1035.501-2.3285.7795-3.6193.7795a8.7368 8.7368 0 01-3.6951-.814l-.3574-1.6684a.648.648 0 00-.7714-.499l-1.473.3158a8.7216 8.7216 0 01-.7613-.898h7.1676c.081 0 .1356-.0141.1356-.088v-2.536c0-.074-.0536-.0881-.1356-.0881h-2.0966v-1.6077h2.2677c.2065 0 1.1065.0587 1.394 1.2088.0901.3533.2875 1.5044.4232 1.8729.1346.413.6833 1.2381 1.2685 1.2381h3.5716a.7492.7492 0 00.1296-.0131 8.7874 8.7874 0 01-.8119.9526zM6.8369 20.024a.714.714 0 11-.2997-1.396.714.714 0 01.2997 1.396zM4.1177 8.9972a.7137.7137 0 11-1.304.5791.7137.7137 0 011.304-.579zm-.8352 1.9813l1.5347-.6824a.65.65 0 00.33-.8585l-.3158-.7147h1.2432v5.6025H3.5669a8.7753 8.7753 0 01-.2834-3.348zm6.7343-.5437V8.7836h2.9601c.153 0 1.0792.1772 1.0792.8697 0 .575-.7107.7815-1.2948.7815zm10.7574 1.4862c0 .2187-.008.4363-.0243.651h-.9c-.09 0-.1265.0586-.1265.1477v.413c0 .973-.5487 1.1846-1.0296 1.2382-.4576.0517-.9648-.1913-1.0275-.4717-.2704-1.5186-.7198-1.8436-1.4305-2.4034.8817-.5599 1.799-1.386 1.799-2.4915 0-1.1936-.819-1.9458-1.3769-2.3153-.7825-.5163-1.6491-.6195-1.883-.6195H5.4682a8.7651 8.7651 0 014.907-2.7699l1.0974 1.151a.648.648 0 00.9182.0213l1.227-1.1743a8.7753 8.7753 0 016.0044 4.2762l-.8403 1.8982a.652.652 0 00.33.8585l1.6178.7188c.0283.2875.0425.577.0425.8717zm-9.3006-9.5993a.7128.7128 0 11.984 1.0316.7137.7137 0 01-.984-1.0316zm8.3389 6.71a.7107.7107 0 01.9395-.3625.7137.7137 0 11-.9405.3635z"/></svg>
    <text class="lbl" x="30" y="55" fill="#fff">Rust</text>
  </g>

  <!-- TypeScript -->
  <g class="t-ts">
    <rect width="60" height="60" rx="14" fill="#3178C6"/>
    <svg x="16" y="12" width="28" height="28" viewBox="0 0 24 24"><path fill="#fff" d="M1.125 0C.502 0 0 .502 0 1.125v21.75C0 23.498.502 24 1.125 24h21.75c.623 0 1.125-.502 1.125-1.125V1.125C24 .502 23.498 0 22.875 0zm17.363 9.75c.612 0 1.154.037 1.627.111a6.38 6.38 0 0 1 1.306.34v2.458a3.95 3.95 0 0 0-.643-.361 5.093 5.093 0 0 0-.717-.26 5.453 5.453 0 0 0-1.426-.2c-.3 0-.573.028-.819.086a2.1 2.1 0 0 0-.623.242c-.17.104-.3.229-.393.374a.888.888 0 0 0-.14.49c0 .196.053.373.156.529.104.156.252.304.443.444s.423.276.696.41c.273.135.582.274.926.416.47.197.892.407 1.266.628.374.222.695.473.963.753.268.279.472.598.614.957.142.359.214.776.214 1.253 0 .657-.125 1.21-.373 1.656a3.033 3.033 0 0 1-1.012 1.085 4.38 4.38 0 0 1-1.487.596c-.566.12-1.163.18-1.79.18a9.916 9.916 0 0 1-1.84-.164 5.544 5.544 0 0 1-1.512-.493v-2.63a5.033 5.033 0 0 0 3.237 1.2c.333 0 .624-.03.872-.09.249-.06.456-.144.623-.25.166-.108.29-.234.373-.38a1.023 1.023 0 0 0-.074-1.089 2.12 2.12 0 0 0-.537-.5 5.597 5.597 0 0 0-.807-.444 27.72 27.72 0 0 0-1.007-.436c-.918-.383-1.602-.852-2.053-1.405-.45-.553-.676-1.222-.676-2.005 0-.614.123-1.141.369-1.582.246-.441.58-.804 1.004-1.089a4.494 4.494 0 0 1 1.47-.629 7.536 7.536 0 0 1 1.77-.201zm-15.113.188h9.563v2.166H9.506v9.646H6.789v-9.646H3.375z"/></svg>
    <text class="lbl" x="30" y="55" fill="#fff">TS</text>
  </g>

  <!-- .NET -->
  <g class="t-net">
    <rect width="60" height="60" rx="14" fill="#512BD4"/>
    <svg x="16" y="12" width="28" height="28" viewBox="0 0 24 24"><path fill="#fff" d="M24 8.77h-2.468v7.565h-1.425V8.77h-2.462V7.53H24zm-6.852 7.565h-4.821V7.53h4.63v1.24h-3.205v2.494h2.953v1.234h-2.953v2.604h3.396zm-6.708 0H8.882L4.78 9.863a2.896 2.896 0 0 1-.258-.51h-.036c.032.189.048.592.048 1.21v5.772H3.157V7.53h1.659l3.965 6.32c.167.261.275.442.323.54h.024c-.04-.233-.06-.629-.06-1.185V7.529h1.372zm-8.703-.693a.868.829 0 0 1-.869.829.868.829 0 0 1-.868-.83.868.829 0 0 1 .868-.828.868.829 0 0 1 .869.829Z"/></svg>
    <text class="lbl" x="30" y="55" fill="#fff">.NET</text>
  </g>

  <!-- Tauri -->
  <g class="t-tauri">
    <rect width="60" height="60" rx="14" fill="#FFC131"/>
    <svg x="16" y="12" width="28" height="28" viewBox="0 0 24 24"><path fill="#1a1a2e" d="M13.912 0a8.72 8.72 0 0 0-8.308 6.139c1.05-.515 2.18-.845 3.342-.976 2.415-3.363 7.4-3.412 9.88-.097 2.48 3.315 1.025 8.084-2.883 9.45a6.131 6.131 0 0 1-.3 2.762 8.72 8.72 0 0 0 3.01-1.225A8.72 8.72 0 0 0 13.913 0zm.082 6.451a2.284 2.284 0 1 0-.15 4.566 2.284 2.284 0 0 0 .15-4.566zm-5.629.27a8.72 8.72 0 0 0-3.031 1.235 8.72 8.72 0 1 0 13.06 9.9131 10.173 10.174 0 0 1-3.343.965 6.125 6.125 0 1 1-7.028-9.343 6.114 6.115 0 0 1 .342-2.772zm1.713 6.27a2.284 2.284 0 0 0-2.284 2.283 2.284 2.284 0 0 0 2.284 2.284 2.284 2.284 0 0 0 2.284-2.284 2.284 2.284 0 0 0-2.284-2.284z"/></svg>
    <text class="lbl" x="30" y="55" fill="#1a1a2e">Tauri</text>
  </g>

  <!-- gRPC -->
  <g class="t-grpc">
    <rect width="60" height="60" rx="14" fill="#00897B"/>
    <text font-family="Arial, Helvetica, sans-serif" font-size="13" font-weight="700" text-anchor="middle" dominant-baseline="central" x="30" y="28" fill="#fff">gRPC</text>
  </g>

  <!-- Docker -->
  <g class="t-docker">
    <rect width="60" height="60" rx="14" fill="#2496ED"/>
    <svg x="16" y="12" width="28" height="28" viewBox="0 0 24 24"><path fill="#fff" d="M13.983 11.078h2.119a.186.186 0 00.186-.185V9.006a.186.186 0 00-.186-.186h-2.119a.185.185 0 00-.185.185v1.888c0 .102.083.185.185.185m-2.954-5.43h2.118a.186.186 0 00.186-.186V3.574a.186.186 0 00-.186-.185h-2.118a.185.185 0 00-.185.185v1.888c0 .102.082.185.185.185m0 2.716h2.118a.187.187 0 00.186-.186V6.29a.186.186 0 00-.186-.185h-2.118a.185.185 0 00-.185.185v1.887c0 .102.082.185.185.186m-2.93 0h2.12a.186.186 0 00.184-.186V6.29a.185.185 0 00-.185-.185H8.1a.185.185 0 00-.185.185v1.887c0 .102.083.185.185.186m-2.964 0h2.119a.186.186 0 00.185-.186V6.29a.185.185 0 00-.185-.185H5.136a.186.186 0 00-.186.185v1.887c0 .102.084.185.186.186m5.893 2.715h2.118a.186.186 0 00.186-.185V9.006a.186.186 0 00-.186-.186h-2.118a.185.185 0 00-.185.185v1.888c0 .102.082.185.185.185m-2.93 0h2.12a.185.185 0 00.184-.185V9.006a.185.185 0 00-.184-.186h-2.12a.185.185 0 00-.184.185v1.888c0 .102.083.185.185.185m-2.964 0h2.119a.185.185 0 00.185-.185V9.006a.185.185 0 00-.184-.186h-2.12a.186.186 0 00-.186.186v1.887c0 .102.084.185.186.185m-2.92 0h2.12a.185.185 0 00.184-.185V9.006a.185.185 0 00-.184-.186h-2.12a.185.185 0 00-.184.185v1.888c0 .102.082.185.185.185M23.763 9.89c-.065-.051-.672-.51-1.954-.51-.338.001-.676.03-1.01.087-.248-1.7-1.653-2.53-1.716-2.566l-.344-.199-.226.327c-.284.438-.49.922-.612 1.43-.23.97-.09 1.882.403 2.661-.595.332-1.55.413-1.744.42H.751a.751.751 0 00-.75.748 11.376 11.376 0 00.692 4.062c.545 1.428 1.355 2.48 2.41 3.124 1.18.723 3.1 1.137 5.275 1.137.983.003 1.963-.086 2.93-.266a12.248 12.248 0 003.823-1.389c.98-.567 1.86-1.288 2.61-2.136 1.252-1.418 1.998-2.997 2.553-4.4h.221c1.372 0 2.215-.549 2.68-1.009.309-.293.55-.65.707-1.046l.098-.288Z"/></svg>
    <text class="lbl" x="30" y="55" fill="#fff">Docker</text>
  </g>

  <!-- Kubernetes -->
  <g class="t-k8s">
    <rect width="60" height="60" rx="14" fill="#326CE5"/>
    <svg x="16" y="12" width="28" height="28" viewBox="0 0 24 24"><path fill="#fff" d="M10.204 14.35l.007.01-.999 2.413a5.171 5.171 0 0 1-2.075-2.597l2.578-.437.004.005a.44.44 0 0 1 .484.606zm-.833-2.129a.44.44 0 0 0 .173-.756l.002-.011L7.585 9.7a5.143 5.143 0 0 0-.73 3.255l2.514-.725.002-.009zm1.145-1.98a.44.44 0 0 0 .699-.337l.01-.005.15-2.62a5.144 5.144 0 0 0-3.01 1.442l2.147 1.523.004-.002zm.76 2.75l.723.349.722-.347.18-.78-.5-.623h-.804l-.5.623.179.779zm1.5-3.095a.44.44 0 0 0 .7.336l.008.003 2.134-1.513a5.188 5.188 0 0 0-2.992-1.442l.148 2.615.002.001zm10.876 5.97l-5.773 7.181a1.6 1.6 0 0 1-1.248.594l-9.261.003a1.6 1.6 0 0 1-1.247-.596l-5.776-7.18a1.583 1.583 0 0 1-.307-1.34L2.1 5.573c.108-.47.425-.864.863-1.073L11.305.513a1.606 1.606 0 0 1 1.385 0l8.345 3.985c.438.209.755.604.863 1.073l2.062 8.955c.108.47-.005.963-.308 1.34zm-3.289-2.057c-.042-.01-.103-.026-.145-.034-.174-.033-.315-.025-.479-.038-.35-.037-.638-.067-.895-.148-.105-.04-.18-.165-.216-.216l-.201-.059a6.45 6.45 0 0 0-.105-2.332 6.465 6.465 0 0 0-.936-2.163c.052-.047.15-.133.177-.159.008-.09.001-.183.094-.282.197-.185.444-.338.743-.522.142-.084.273-.137.415-.242.032-.024.076-.062.11-.089.24-.191.295-.52.123-.736-.172-.216-.506-.236-.745-.045-.034.027-.08.062-.111.088-.134.116-.217.23-.33.35-.246.25-.45.458-.673.609-.097.056-.239.037-.303.033l-.19.135a6.545 6.545 0 0 0-4.146-2.003l-.012-.223c-.065-.062-.143-.115-.163-.25-.022-.268.015-.557.057-.905.023-.163.061-.298.068-.475.001-.04-.001-.099-.001-.142 0-.306-.224-.555-.5-.555-.275 0-.499.249-.499.555l.001.014c0 .041-.002.092 0 .128.006.177.044.312.067.475.042.348.078.637.056.906a.545.545 0 0 1-.162.258l-.012.211a6.424 6.424 0 0 0-4.166 2.003 8.373 8.373 0 0 1-.18-.128c-.09.012-.18.04-.297-.029-.223-.15-.427-.358-.673-.608-.113-.12-.195-.234-.329-.349-.03-.026-.077-.062-.111-.088a.594.594 0 0 0-.348-.132.481.481 0 0 0-.398.176c-.172.216-.117.546.123.737l.007.005.104.083c.142.105.272.159.414.242.299.185.546.338.743.522.076.082.09.226.1.288l.16.143a6.462 6.462 0 0 0-1.02 4.506l-.208.06c-.055.072-.133.184-.215.217-.257.081-.546.11-.895.147-.164.014-.305.006-.48.039-.037.007-.09.02-.133.03l-.004.002-.007.002c-.295.071-.484.342-.423.608.061.267.349.429.645.365l.007-.001.01-.003.129-.029c.17-.046.294-.113.448-.172.33-.118.604-.217.87-.256.112-.009.23.069.288.101l.217-.037a6.5 6.5 0 0 0 2.88 3.596l-.09.218c.033.084.069.199.044.282-.097.252-.263.517-.452.813-.091.136-.185.242-.268.399-.02.037-.045.095-.064.134-.128.275-.034.591.213.71.248.12.556-.007.69-.282v-.002c.02-.039.046-.09.062-.127.07-.162.094-.301.144-.458.132-.332.205-.68.387-.897.05-.06.13-.082.215-.105l.113-.205a6.453 6.453 0 0 0 4.609.012l.106.192c.086.028.18.042.256.155.136.232.229.507.342.84.05.156.074.295.145.457.016.037.043.09.062.129.133.276.442.402.69.282.247-.118.341-.435.213-.71-.02-.039-.045-.096-.065-.134-.083-.156-.177-.261-.268-.398-.19-.296-.346-.541-.443-.793-.04-.13.007-.21.038-.294-.018-.022-.059-.144-.083-.202a6.499 6.499 0 0 0 2.88-3.622c.064.01.176.03.213.038.075-.05.144-.114.28-.104.266.039.54.138.87.256.154.06.277.128.448.173.036.01.088.019.13.028l.009.003.007.001c.297.064.584-.098.645-.365.06-.266-.128-.537-.423-.608zM16.4 9.701l-1.95 1.746v.005a.44.44 0 0 0 .173.757l.003.01 2.526.728a5.199 5.199 0 0 0-.108-1.674A5.208 5.208 0 0 0 16.4 9.7zm-4.013 5.325a.437.437 0 0 0-.404-.232.44.44 0 0 0-.372.233h-.002l-1.268 2.292a5.164 5.164 0 0 0 3.326.003l-1.27-2.296h-.01zm1.888-1.293a.44.44 0 0 0-.27.036.44.44 0 0 0-.214.572l-.003.004 1.01 2.438a5.15 5.15 0 0 0 2.081-2.615l-2.6-.44-.004.005z"/></svg>
    <text class="lbl" x="30" y="55" fill="#fff">K8s</text>
  </g>

  <!-- SQL -->
  <g class="t-sql">
    <rect width="60" height="60" rx="14" fill="#4479A1"/>
    <text font-family="Arial, Helvetica, sans-serif" font-size="13" font-weight="700" text-anchor="middle" dominant-baseline="central" x="30" y="30" fill="#fff">SQL</text>
  </g>

  <!-- NoSQL (MongoDB icon) -->
  <g class="t-nosql">
    <rect width="60" height="60" rx="14" fill="#47A248"/>
    <svg x="16" y="12" width="28" height="28" viewBox="0 0 24 24"><path fill="#fff" d="M17.193 9.555c-1.264-5.58-4.252-7.414-4.573-8.115-.28-.394-.53-.954-.735-1.44-.036.495-.055.685-.523 1.184-.723.566-4.438 3.682-4.74 10.02-.282 5.912 4.27 9.435 4.888 9.884l.07.05A73.49 73.49 0 0111.91 24h.481c.114-1.032.284-2.056.51-3.07.417-.296.604-.463.85-.693a11.342 11.342 0 003.639-8.464c.01-.814-.103-1.662-.197-2.218zm-5.336 8.195s0-8.291.275-8.29c.213 0 .49 10.695.49 10.695-.381-.045-.765-1.76-.765-2.405z"/></svg>
    <text class="lbl" x="30" y="55" fill="#fff">NoSQL</text>
  </g>
</svg>
